<svg width="20" height="20" viewBox="0 0 20 20" fill="none" xmlns="http://www.w3.org/2000/svg">
<path fill-rule="evenodd" clip-rule="evenodd" d="M2.20416 1.59774H2.75869V0.564867C2.75869 0.253912 3.0261 0 3.35177 0C3.67826 0 3.94485 0.253912 3.94485 0.564867V1.59774H16.056V0.564867C16.056 0.253912 16.3226 0 16.6491 0C16.9747 0 17.2422 0.253912 17.2422 0.564867V1.59774H17.7967C19.0083 1.59774 20 2.54232 20 3.69623V17.9015C20 19.0555 19.0082 20 17.7967 20H2.20332C0.991726 20 0 19.0554 0 17.9015V3.69623C0 2.54228 0.991768 1.59774 2.20332 1.59774H2.20416ZM17.2429 2.65324V3.42204C17.2429 3.73222 16.9755 3.98691 16.6498 3.98691C16.3233 3.98691 16.0567 3.73222 16.0567 3.42204V2.65324C15.6335 2.85871 15.3439 3.27749 15.3439 3.76112C15.3439 4.44787 15.9288 5.00494 16.6498 5.00494C17.3709 5.00494 17.9558 4.44787 17.9558 3.76112C17.9558 3.27749 17.6662 2.85873 17.2429 2.65324H17.2429ZM3.94569 2.65324V3.42204C3.94569 3.73222 3.6791 3.98691 3.35261 3.98691C3.02694 3.98691 2.75953 3.73222 2.75953 3.42204V2.65324C2.33625 2.85871 2.04668 3.27749 2.04668 3.76112C2.04668 4.44787 2.63158 5.00494 3.35263 5.00494C4.07451 5.00494 4.65858 4.44787 4.65858 3.76112C4.65858 3.27749 4.36901 2.85873 3.94574 2.65324H3.94569ZM18.8492 6.92445V17.9016C18.8492 18.4516 18.3767 18.9024 17.7984 18.9024H2.20502C1.62752 18.9024 1.1542 18.4524 1.1542 17.9016V6.92445H18.8492Z" fill="#0059B3"/>
<path fill-rule="evenodd" clip-rule="evenodd" d="M2.73035 8.39551H4.96639C5.00412 8.39551 5.03447 8.42441 5.03447 8.46035V10.59C5.03447 10.6252 5.00412 10.6541 4.96639 10.6541H2.73035C2.69344 10.6541 2.66309 10.6252 2.66309 10.59V8.46035C2.66309 8.42441 2.69344 8.39551 2.73035 8.39551Z" fill="#0059B3"/>
<path fill-rule="evenodd" clip-rule="evenodd" d="M6.83224 8.39551H9.06828C9.10519 8.39551 9.13555 8.42441 9.13555 8.46035V10.59C9.13555 10.6252 9.10519 10.6541 9.06828 10.6541H6.83224C6.79451 10.6541 6.76416 10.6252 6.76416 10.59V8.46035C6.76416 8.42441 6.79451 8.39551 6.83224 8.39551Z" fill="#0059B3"/>
<path fill-rule="evenodd" clip-rule="evenodd" d="M10.9343 8.39551H13.1704C13.2073 8.39551 13.2377 8.42441 13.2377 8.46035V10.59C13.2377 10.6252 13.2073 10.6541 13.1704 10.6541H10.9343C10.8966 10.6541 10.8662 10.6252 10.8662 10.59V8.46035C10.8662 8.42441 10.8966 8.39551 10.9343 8.39551Z" fill="#0059B3"/>
<path fill-rule="evenodd" clip-rule="evenodd" d="M15.0359 8.39551H17.272C17.3097 8.39551 17.3401 8.42441 17.3401 8.46035V10.59C17.3401 10.6252 17.3097 10.6541 17.272 10.6541H15.0359C14.9981 10.6541 14.9678 10.6252 14.9678 10.59V8.46035C14.9678 8.42441 14.9981 8.39551 15.0359 8.39551Z" fill="#0059B3"/>
<path fill-rule="evenodd" clip-rule="evenodd" d="M2.73035 11.7852H4.96639C5.00412 11.7852 5.03447 11.8141 5.03447 11.85V13.9797C5.03447 14.0156 5.00412 14.0445 4.96639 14.0445H2.73035C2.69344 14.0445 2.66309 14.0156 2.66309 13.9797V11.85C2.66309 11.8141 2.69344 11.7852 2.73035 11.7852Z" fill="#0059B3"/>
<path fill-rule="evenodd" clip-rule="evenodd" d="M2.73035 15.1738H4.96639C5.00412 15.1738 5.03447 15.2027 5.03447 15.2379V17.3677C5.03447 17.4036 5.00412 17.4325 4.96639 17.4325H2.73035C2.69344 17.4325 2.66309 17.4036 2.66309 17.3677V15.2379C2.66309 15.2027 2.69344 15.1738 2.73035 15.1738Z" fill="#0059B3"/>
<path fill-rule="evenodd" clip-rule="evenodd" d="M6.83224 11.7852H9.06828C9.10519 11.7852 9.13555 11.8141 9.13555 11.85V13.9797C9.13555 14.0156 9.10519 14.0445 9.06828 14.0445H6.83224C6.79451 14.0445 6.76416 14.0156 6.76416 13.9797V11.85C6.76416 11.8141 6.79451 11.7852 6.83224 11.7852Z" fill="#0059B3"/>
<path fill-rule="evenodd" clip-rule="evenodd" d="M6.83224 15.1738H9.06828C9.10519 15.1738 9.13555 15.2027 9.13555 15.2379V17.3677C9.13555 17.4036 9.10519 17.4325 9.06828 17.4325H6.83224C6.79451 17.4325 6.76416 17.4036 6.76416 17.3677V15.2379C6.76416 15.2027 6.79451 15.1738 6.83224 15.1738Z" fill="#0059B3"/>
<path fill-rule="evenodd" clip-rule="evenodd" d="M10.9343 11.7852H13.1704C13.2073 11.7852 13.2377 11.8141 13.2377 11.85V13.9797C13.2377 14.0156 13.2073 14.0445 13.1704 14.0445H10.9343C10.8966 14.0445 10.8662 14.0156 10.8662 13.9797V11.85C10.8662 11.8141 10.8966 11.7852 10.9343 11.7852Z" fill="#0059B3"/>
<path fill-rule="evenodd" clip-rule="evenodd" d="M10.9343 15.1738H13.1704C13.2073 15.1738 13.2377 15.2027 13.2377 15.2379V17.3677C13.2377 17.4036 13.2073 17.4325 13.1704 17.4325H10.9343C10.8966 17.4325 10.8662 17.4036 10.8662 17.3677V15.2379C10.8662 15.2027 10.8966 15.1738 10.9343 15.1738Z" fill="#0059B3"/>
<path fill-rule="evenodd" clip-rule="evenodd" d="M15.0359 11.7852H17.272C17.3097 11.7852 17.3401 11.8141 17.3401 11.85V13.9797C17.3401 14.0156 17.3097 14.0445 17.272 14.0445H15.0359C14.9981 14.0445 14.9678 14.0156 14.9678 13.9797V11.85C14.9678 11.8141 14.9981 11.7852 15.0359 11.7852Z" fill="#0059B3"/>
<path fill-rule="evenodd" clip-rule="evenodd" d="M15.0359 15.1738H17.272C17.3097 15.1738 17.3401 15.2027 17.3401 15.2379V17.3677C17.3401 17.4036 17.3097 17.4325 17.272 17.4325H15.0359C14.9981 17.4325 14.9678 17.4036 14.9678 17.3677V15.2379C14.9678 15.2027 14.9981 15.1738 15.0359 15.1738Z" fill="#0059B3"/>
</svg>
