<svg width="167" height="41" viewBox="0 0 167 41" fill="none" xmlns="http://www.w3.org/2000/svg">
<path d="M128.583 10.6875H119.672C119.147 10.6875 118.623 11.1965 118.361 11.7055L114.691 34.101C114.691 34.61 114.953 34.8645 115.478 34.8645H120.196C120.72 34.8645 120.982 34.61 120.982 34.101L122.031 27.7386C122.031 27.2296 122.555 26.7207 123.341 26.7207H126.224C132.253 26.7207 135.66 23.9212 136.447 18.3224C136.971 16.0319 136.447 13.9959 135.399 12.7235C133.826 11.451 131.467 10.6875 128.583 10.6875ZM129.632 19.0858C129.108 22.1398 126.749 22.1398 124.39 22.1398H122.817L123.865 16.2864C123.865 16.0319 124.128 15.7774 124.652 15.7774H125.176C126.749 15.7774 128.321 15.7774 129.108 16.7954C129.632 17.0499 129.632 17.8133 129.632 19.0858Z" fill="#139AD6"/>
<path d="M64.3657 10.6875H55.4539C54.9296 10.6875 54.4053 11.1965 54.1433 11.7055L50.4736 34.101C50.4736 34.61 50.736 34.8645 51.2599 34.8645H55.4539C55.9781 34.8645 56.5024 34.3555 56.7644 33.8465L57.813 27.7386C57.813 27.2296 58.3373 26.7207 59.1235 26.7207H62.0066C68.0354 26.7207 71.4427 23.9212 72.229 18.3224C72.7533 16.0319 72.229 13.9959 71.1808 12.7235C69.6079 11.451 67.5111 10.6875 64.3657 10.6875ZM65.4143 19.0858C64.89 22.1398 62.5309 22.1398 60.1717 22.1398H58.8612L59.9098 16.2864C59.9098 16.0319 60.1717 15.7774 60.696 15.7774H61.2203C62.7932 15.7774 64.3657 15.7774 65.152 16.7954C65.4143 17.0499 65.6763 17.8133 65.4143 19.0858Z" fill="#263B80"/>
<path d="M91.3641 18.8342H87.1702C86.9082 18.8342 86.3839 19.0887 86.3839 19.3432L86.122 20.6156L85.8596 20.1067C84.8114 18.8342 82.9766 18.3252 80.8794 18.3252C76.1615 18.3252 71.9675 21.8881 71.1813 26.7235C70.657 29.2684 71.4436 31.5589 72.7542 33.0859C74.0647 34.6128 75.8996 35.1218 78.2583 35.1218C82.1903 35.1218 84.2871 32.8314 84.2871 32.8314L84.0248 34.1038C84.0248 34.6128 84.2871 34.8673 84.8114 34.8673H88.743C89.2673 34.8673 89.7913 34.3583 90.0536 33.8493L92.4127 19.5976C92.1504 19.3432 91.6261 18.8342 91.3641 18.8342ZM85.3353 26.978C84.8114 29.2684 82.9766 31.0499 80.3555 31.0499C79.0449 31.0499 77.9964 30.5409 77.4721 30.0319C76.9478 29.2684 76.6858 28.2505 76.6858 26.978C76.9478 24.6875 79.0449 22.9061 81.4037 22.9061C82.7142 22.9061 83.5009 23.4151 84.2871 23.9241C85.0734 24.6875 85.3353 25.96 85.3353 26.978Z" fill="#263B80"/>
<path d="M155.319 18.8303H151.125C150.863 18.8303 150.339 19.0848 150.339 19.3393L150.077 20.6117L149.815 20.1028C148.766 18.8303 146.932 18.3213 144.834 18.3213C140.117 18.3213 135.923 21.8842 135.136 26.7196C134.612 29.2646 135.399 31.555 136.709 33.082C138.02 34.6089 139.855 35.1179 142.213 35.1179C146.145 35.1179 148.242 32.8275 148.242 32.8275L147.98 34.1C147.98 34.6089 148.242 34.8634 148.766 34.8634H152.698C153.222 34.8634 153.746 34.3544 154.009 33.8455L156.368 19.5938C156.105 19.3393 155.844 18.8303 155.319 18.8303ZM149.29 26.9741C148.766 29.2646 146.932 31.046 144.311 31.046C143 31.046 141.951 30.537 141.427 30.028C140.903 29.2646 140.641 28.2466 140.641 26.9741C140.903 24.6837 143 22.9022 145.359 22.9022C146.669 22.9022 147.456 23.4112 148.242 23.9202C149.29 24.6837 149.553 25.9561 149.29 26.9741Z" fill="#139AD6"/>
<path d="M114.168 18.833H109.712C109.187 18.833 108.926 19.0875 108.664 19.342L102.897 27.9948L100.276 19.851C100.014 19.342 99.7517 19.0875 98.9651 19.0875H94.7715C94.2472 19.0875 93.9849 19.5965 93.9849 20.1055L98.7031 33.5936L94.2472 39.7014C93.9849 40.2103 94.2472 40.974 94.7715 40.974H98.9651C99.4894 40.974 99.7513 40.7196 100.014 40.4651L114.43 20.3599C115.216 19.5965 114.692 18.833 114.168 18.833Z" fill="#263B80"/>
<path d="M160.299 11.4516L156.629 34.3561C156.629 34.8651 156.892 35.1196 157.416 35.1196H161.085C161.61 35.1196 162.134 34.6106 162.396 34.1016L166.066 11.7061C166.066 11.1971 165.804 10.9426 165.279 10.9426H161.085C160.823 10.6881 160.561 10.9426 160.299 11.4516Z" fill="#139AD6"/>
<path d="M31.0774 3.05393C29.2426 1.01797 25.8351 0 21.1171 0H8.01138C7.22505 0 6.43873 0.763479 6.17662 1.52696L0.934326 34.8657C0.934326 35.6292 1.45856 36.1382 1.98278 36.1382H10.1083L12.2052 23.6679V24.177C12.4673 23.4135 13.2537 22.65 14.04 22.65H17.9717C25.573 22.65 31.3395 19.5961 33.1743 11.1977C33.1743 10.9432 33.1743 10.6887 33.1743 10.4343C32.9122 10.4343 32.9122 10.4343 33.1743 10.4343C33.4364 7.12584 32.9122 5.08988 31.0774 3.05393Z" fill="#263B80"/>
<path d="M32.9123 10.4346C32.9123 10.6891 32.9123 10.9436 32.9123 11.1981C31.0775 19.8509 25.311 22.6503 17.7097 22.6503H13.778C12.9916 22.6503 12.2053 23.4138 11.9432 24.1773L9.32202 39.7014C9.32202 40.2103 9.58417 40.7192 10.3705 40.7192H17.1854C17.9718 40.7192 18.7581 40.2103 18.7581 39.447V39.1925L20.0687 31.3031V30.7941C20.0687 30.0306 20.855 29.5217 21.6414 29.5217H22.6898C29.2427 29.5217 34.4849 26.9767 35.7955 19.3419C36.3197 16.288 36.0576 13.4885 34.4849 11.7071C34.2228 11.1981 33.6986 10.6891 32.9123 10.4346Z" fill="#139AD6"/>
<path d="M31.0775 9.66972C30.8154 9.66972 30.5533 9.41523 30.2912 9.41523C30.0291 9.41523 29.767 9.41523 29.5049 9.16074C28.4564 8.90625 27.4079 8.90625 26.0974 8.90625H15.8749C15.6128 8.90625 15.3507 8.90625 15.0886 9.16074C14.5644 9.41523 14.3022 9.92421 14.3022 10.4332L12.2053 23.6669V24.1759C12.4675 23.4124 13.2538 22.649 14.0401 22.649H17.9718C25.5731 22.649 31.3396 19.595 33.1744 11.1967C33.1744 10.9422 33.1745 10.6877 33.4366 10.4332C32.9123 10.1787 32.6502 9.92421 32.126 9.92421C31.3396 9.66972 31.3396 9.66972 31.0775 9.66972Z" fill="#232C65"/>
</svg>
