<svg width="12" height="12" viewBox="0 0 12 12" fill="none" xmlns="http://www.w3.org/2000/svg">
<path d="M9.53052 3.60995C9.53052 5.60404 7.95017 7.21989 5.99988 7.21989C4.04959 7.21989 2.46924 5.60404 2.46924 3.60995C2.46924 1.61644 4.04959 0 5.99988 0C7.95017 0 9.53052 1.61644 9.53052 3.60995Z" fill="#003D7A"/>
<path d="M6 12C8.76161 12 11 11.0292 11 10.3669C11 9.29694 9.71336 7.7571 7.88823 7.0741C7.32892 7.39405 6.68504 7.57737 5.99942 7.57737C5.31438 7.57737 4.67051 7.39405 4.11062 7.0741C2.28663 7.75723 1 9.29694 1 10.3669C1 11.0293 3.23897 12 6 12Z" fill="#003D7A"/>
</svg>
