<svg width="101" height="41" viewBox="0 0 101 41" fill="none" xmlns="http://www.w3.org/2000/svg">
<path d="M91.7611 15.0553C89.7467 15.0553 89.957 17.5361 89.8734 20.1847H93.2295C93.2295 17.1993 93.2295 15.0553 91.7611 15.0553ZM89.8734 24.5155C89.8734 26.9117 91.0479 27.3741 93.0199 27.3741C95.2859 27.3741 98.3486 26.701 99.5235 26.4909V32.2935C98.6007 32.6301 95.7895 33.4282 93.0199 33.4282C88.0267 33.4282 81.9423 32.6294 81.9423 21.9504C81.9423 12.5323 86.7259 10.304 91.7607 10.304C96.9219 10.304 100.656 12.9528 100.656 21.8662V24.5155H89.8734ZM70.1907 16.1903C69.7299 16.1903 68.8063 16.5688 68.3031 16.8635V27.6263C68.6803 27.753 69.3519 27.837 69.6459 27.837C71.0307 27.837 71.8699 26.6596 71.8699 21.7406C71.869 16.7369 71.4915 16.1903 70.1907 16.1903ZM71.1138 33.4286C70.1067 33.4286 69.0579 33.1344 68.3027 32.966V40.9967H60.3302V10.7245H66.7918L67.967 12.112C69.1834 11.019 70.9043 10.304 72.7083 10.304C75.981 10.304 79.841 11.2288 79.841 21.7399C79.841 33.2609 74.051 33.4286 71.1138 33.4286ZM52.9859 7.99173C50.7623 7.99173 49.0419 6.18374 49.0419 3.99733C49.0419 1.81091 50.7623 0.00292969 52.9859 0.00292969C55.2103 0.00292969 56.9302 1.81091 56.9302 3.99733C56.9302 6.18374 55.2103 7.99173 52.9859 7.99173ZM48.9998 33.0083V10.7245H56.9723V33.0083H48.9998ZM44.1727 16.9893C42.9139 16.9893 41.9486 17.4941 41.529 17.7462V33.0083H33.557V10.7245H39.8928L41.0674 12.8686C41.529 11.4812 42.7878 10.3037 44.6342 10.3037C45.893 10.3037 46.7322 10.5561 47.1094 10.7662V17.4089C46.3122 17.1993 45.2635 16.9893 44.1727 16.9893ZM29.0236 27.3743C29.527 27.3743 31.2896 27.1224 31.8764 27.0378V32.7139C30.66 33.0079 27.9744 33.4286 26.2123 33.4286C23.9463 33.4286 19.7086 33.1767 19.7086 26.9961V15.8121H16.7715V10.7245H19.709L20.716 5.67924L27.6812 3.99756V10.7248H31.8771L30.8283 15.8124H27.6814V25.5668C27.681 27.0799 28.1424 27.3743 29.0236 27.3743ZM8.41921 17.1575C8.41921 18.0404 9.00697 18.3346 10.3914 18.9652L11.2307 19.3439C13.2026 20.2268 15.9296 21.6564 15.9296 25.861C15.9296 32.588 10.9364 33.4288 7.37001 33.4288C5.06221 33.4288 2.62862 32.8822 0.992132 32.3782V26.6177C2.41855 26.9968 4.89461 27.5846 5.98517 27.5846C7.20197 27.5846 8.12513 27.4169 8.12513 26.3235C8.12513 25.4826 7.53761 25.1044 6.23701 24.5159L5.22981 24.0533C3.34194 23.1701 0.65625 21.6571 0.65625 17.5785C0.65625 11.6079 5.31361 10.3049 9.21613 10.3049C12.1534 10.3049 14.0836 10.9774 15.0903 11.356V16.9479C13.9153 16.5697 11.5241 16.065 10.0975 16.065C9.13253 16.0645 8.41921 16.3164 8.41921 17.1575Z" fill="#359AD5"/>
</svg>
