<svg width="26" height="26" viewBox="0 0 26 26" fill="none" xmlns="http://www.w3.org/2000/svg">
<path fill-rule="evenodd" clip-rule="evenodd" d="M2.86541 2.07706H3.5863V0.734326C3.5863 0.330085 3.93393 0 4.3573 0C4.78174 0 5.12831 0.330085 5.12831 0.734326V2.07706H20.8728V0.734326C20.8728 0.330085 21.2194 0 21.6438 0C22.0672 0 22.4148 0.330085 22.4148 0.734326V2.07706H23.1357C24.7108 2.07706 26 3.30502 26 4.8051V23.272C26 24.7721 24.7107 26 23.1357 26H2.86432C1.28924 26 0 24.772 0 23.272V4.8051C0 3.30496 1.2893 2.07706 2.86432 2.07706H2.86541ZM22.4158 3.44922V4.44865C22.4158 4.85188 22.0681 5.18298 21.6448 5.18298C21.2203 5.18298 20.8738 4.85188 20.8738 4.44865V3.44922C20.3235 3.71633 19.9471 4.26074 19.9471 4.88945C19.9471 5.78223 20.7074 6.50642 21.6448 6.50642C22.5822 6.50642 23.3425 5.78223 23.3425 4.88945C23.3425 4.26074 22.9661 3.71635 22.4158 3.44922H22.4158ZM5.1294 3.44922V4.44865C5.1294 4.85188 4.78283 5.18298 4.35839 5.18298C3.93503 5.18298 3.58739 4.85188 3.58739 4.44865V3.44922C3.03713 3.71633 2.66069 4.26074 2.66069 4.88945C2.66069 5.78223 3.42105 6.50642 4.35842 6.50642C5.29686 6.50642 6.05616 5.78223 6.05616 4.88945C6.05616 4.26074 5.67972 3.71635 5.12946 3.44922H5.1294ZM24.504 9.00178V23.272C24.504 23.9871 23.8897 24.5731 23.1379 24.5731H2.86653C2.11578 24.5731 1.50046 23.9881 1.50046 23.272V9.00178H24.504Z" fill="#0059B3"/>
<path fill-rule="evenodd" clip-rule="evenodd" d="M3.54936 10.9141H6.45621C6.50526 10.9141 6.54472 10.9516 6.54472 10.9984V13.7669C6.54472 13.8126 6.50526 13.8502 6.45621 13.8502H3.54936C3.50137 13.8502 3.46191 13.8126 3.46191 13.7669V10.9984C3.46191 10.9516 3.50137 10.9141 3.54936 10.9141Z" fill="#0059B3"/>
<path fill-rule="evenodd" clip-rule="evenodd" d="M8.88197 10.9141H11.7888C11.8368 10.9141 11.8763 10.9516 11.8763 10.9984V13.7669C11.8763 13.8126 11.8368 13.8502 11.7888 13.8502H8.88197C8.83291 13.8502 8.79346 13.8126 8.79346 13.7669V10.9984C8.79346 10.9516 8.83291 10.9141 8.88197 10.9141Z" fill="#0059B3"/>
<path fill-rule="evenodd" clip-rule="evenodd" d="M14.215 10.9141H17.1219C17.1699 10.9141 17.2094 10.9516 17.2094 10.9984V13.7669C17.2094 13.8126 17.1699 13.8502 17.1219 13.8502H14.215C14.1659 13.8502 14.1265 13.8126 14.1265 13.7669V10.9984C14.1265 10.9516 14.1659 10.9141 14.215 10.9141Z" fill="#0059B3"/>
<path fill-rule="evenodd" clip-rule="evenodd" d="M19.5465 10.9141H22.4535C22.5025 10.9141 22.542 10.9516 22.542 10.9984V13.7669C22.542 13.8126 22.5025 13.8502 22.4535 13.8502H19.5465C19.4975 13.8502 19.458 13.8126 19.458 13.7669V10.9984C19.458 10.9516 19.4975 10.9141 19.5465 10.9141Z" fill="#0059B3"/>
<path fill-rule="evenodd" clip-rule="evenodd" d="M3.54936 15.3203H6.45621C6.50526 15.3203 6.54472 15.3579 6.54472 15.4046V18.1732C6.54472 18.2199 6.50526 18.2575 6.45621 18.2575H3.54936C3.50137 18.2575 3.46191 18.2199 3.46191 18.1732V15.4046C3.46191 15.3579 3.50137 15.3203 3.54936 15.3203Z" fill="#0059B3"/>
<path fill-rule="evenodd" clip-rule="evenodd" d="M3.54936 19.7266H6.45621C6.50526 19.7266 6.54472 19.7641 6.54472 19.8099V22.5786C6.54472 22.6253 6.50526 22.6629 6.45621 22.6629H3.54936C3.50137 22.6629 3.46191 22.6253 3.46191 22.5786V19.8099C3.46191 19.7641 3.50137 19.7266 3.54936 19.7266Z" fill="#0059B3"/>
<path fill-rule="evenodd" clip-rule="evenodd" d="M8.88197 15.3203H11.7888C11.8368 15.3203 11.8763 15.3579 11.8763 15.4046V18.1732C11.8763 18.2199 11.8368 18.2575 11.7888 18.2575H8.88197C8.83291 18.2575 8.79346 18.2199 8.79346 18.1732V15.4046C8.79346 15.3579 8.83291 15.3203 8.88197 15.3203Z" fill="#0059B3"/>
<path fill-rule="evenodd" clip-rule="evenodd" d="M8.88197 19.7266H11.7888C11.8368 19.7266 11.8763 19.7641 11.8763 19.8099V22.5786C11.8763 22.6253 11.8368 22.6629 11.7888 22.6629H8.88197C8.83291 22.6629 8.79346 22.6253 8.79346 22.5786V19.8099C8.79346 19.7641 8.83291 19.7266 8.88197 19.7266Z" fill="#0059B3"/>
<path fill-rule="evenodd" clip-rule="evenodd" d="M14.215 15.3203H17.1219C17.1699 15.3203 17.2094 15.3579 17.2094 15.4046V18.1732C17.2094 18.2199 17.1699 18.2575 17.1219 18.2575H14.215C14.1659 18.2575 14.1265 18.2199 14.1265 18.1732V15.4046C14.1265 15.3579 14.1659 15.3203 14.215 15.3203Z" fill="#0059B3"/>
<path fill-rule="evenodd" clip-rule="evenodd" d="M14.215 19.7266H17.1219C17.1699 19.7266 17.2094 19.7641 17.2094 19.8099V22.5786C17.2094 22.6253 17.1699 22.6629 17.1219 22.6629H14.215C14.1659 22.6629 14.1265 22.6253 14.1265 22.5786V19.8099C14.1265 19.7641 14.1659 19.7266 14.215 19.7266Z" fill="#0059B3"/>
<path fill-rule="evenodd" clip-rule="evenodd" d="M19.5465 15.3203H22.4535C22.5025 15.3203 22.542 15.3579 22.542 15.4046V18.1732C22.542 18.2199 22.5025 18.2575 22.4535 18.2575H19.5465C19.4975 18.2575 19.458 18.2199 19.458 18.1732V15.4046C19.458 15.3579 19.4975 15.3203 19.5465 15.3203Z" fill="#0059B3"/>
<path fill-rule="evenodd" clip-rule="evenodd" d="M19.5465 19.7266H22.4535C22.5025 19.7266 22.542 19.7641 22.542 19.8099V22.5786C22.542 22.6253 22.5025 22.6629 22.4535 22.6629H19.5465C19.4975 22.6629 19.458 22.6253 19.458 22.5786V19.8099C19.458 19.7641 19.4975 19.7266 19.5465 19.7266Z" fill="#0059B3"/>
</svg>
